<svg width="28" height="19" viewBox="0 0 28 19" fill="none" xmlns="http://www.w3.org/2000/svg">
<g clip-path="url(#clip0_1913_56)" filter="url(#filter0_d_1913_56)">
<g filter="url(#filter1_d_1913_56)">
<path d="M14.052 18.288C12.772 18.288 11.588 18.064 10.5 17.616C9.42803 17.168 8.48403 16.544 7.66803 15.744C6.85203 14.944 6.22003 14.016 5.77203 12.96C5.32403 11.888 5.10003 10.736 5.10003 9.50401C5.10003 8.25601 5.32403 7.10401 5.77203 6.04801C6.22003 4.99201 6.84403 4.07201 7.64403 3.28801C8.44403 2.48801 9.38003 1.87201 10.452 1.44001C11.54 0.992005 12.724 0.768005 14.004 0.768005C15.268 0.768005 16.436 0.992005 17.508 1.44001C18.596 1.87201 19.54 2.48801 20.34 3.28801C21.156 4.07201 21.788 5.00001 22.236 6.07201C22.684 7.12801 22.908 8.28001 22.908 9.52801C22.908 10.76 22.684 11.912 22.236 12.984C21.788 14.04 21.164 14.968 20.364 15.768C19.564 16.552 18.62 17.168 17.532 17.616C16.46 18.064 15.3 18.288 14.052 18.288ZM14.004 14.856C15.012 14.856 15.892 14.632 16.644 14.184C17.412 13.736 18.004 13.112 18.42 12.312C18.836 11.496 19.044 10.56 19.044 9.50401C19.044 8.70401 18.924 7.98401 18.684 7.34401C18.444 6.68801 18.1 6.12801 17.652 5.66401C17.204 5.18401 16.668 4.82401 16.044 4.58401C15.436 4.32801 14.756 4.20001 14.004 4.20001C12.996 4.20001 12.108 4.42401 11.34 4.87201C10.588 5.30401 10.004 5.92001 9.58803 6.72001C9.17203 7.50401 8.96403 8.43201 8.96403 9.50401C8.96403 10.304 9.08403 11.032 9.32403 11.688C9.56403 12.344 9.90003 12.912 10.332 13.392C10.78 13.856 11.316 14.216 11.94 14.472C12.564 14.728 13.252 14.856 14.004 14.856Z" fill="#A8BFC9"/>
</g>
<g filter="url(#filter2_d_1913_56)">
<path fill-rule="evenodd" clip-rule="evenodd" d="M14.004 1.26801C12.7836 1.26801 11.6649 1.48132 10.6424 1.90234L10.6389 1.90378L10.6389 1.90376C9.62794 2.31117 8.74897 2.89017 7.99759 3.64156L7.99402 3.64513L7.994 3.64511C7.24223 4.38185 6.65521 5.24647 6.23232 6.24328C5.81276 7.23226 5.60003 8.31715 5.60003 9.50401C5.60003 10.6734 5.81225 11.7591 6.23288 12.766C6.65522 13.7611 7.24964 14.6336 8.01807 15.387C8.78774 16.1415 9.67782 16.7304 10.6919 17.1543C11.714 17.5749 12.8321 17.788 14.052 17.788C15.2388 17.788 16.3327 17.5753 17.3392 17.1547L17.3417 17.1537C18.3724 16.7293 19.2608 16.1486 20.0122 15.4128C20.765 14.6595 21.3523 13.7864 21.7752 12.79C22.1958 11.783 22.408 10.6974 22.408 9.52801C22.408 8.34115 22.1953 7.25626 21.7757 6.26728L21.7747 6.2648C21.3524 5.25427 20.7589 4.38382 19.9936 3.64856L19.9864 3.64163L19.9865 3.64156C19.2363 2.89142 18.3504 2.31246 17.3235 1.90471L17.3152 1.90141L17.3152 1.90134C16.3095 1.48103 15.2077 1.26801 14.004 1.26801ZM10.2634 0.976942C11.4164 0.502452 12.6652 0.268005 14.004 0.268005C15.3268 0.268005 16.5596 0.502412 17.6967 0.976944C18.8425 1.4325 19.842 2.08382 20.6901 2.93096C21.5547 3.76266 22.2239 4.74662 22.6969 5.87798C23.1729 7.00065 23.408 8.21934 23.408 9.52801C23.408 10.8221 23.1724 12.0401 22.6974 13.1768L22.6963 13.1793C22.2236 14.2936 21.5636 15.2755 20.7176 16.1216L20.714 16.1251L20.714 16.1251C19.8661 16.956 18.8677 17.6065 17.7239 18.0777C16.5867 18.5528 15.3609 18.788 14.052 18.788C12.7125 18.788 11.4632 18.5533 10.3097 18.0783L10.3072 18.0773C9.17768 17.6053 8.18008 16.9462 7.318 16.101C6.45476 15.2547 5.78538 14.2717 5.31174 13.1553L5.3107 13.1528C4.83566 12.0161 4.60003 10.7981 4.60003 9.50401C4.60003 8.19486 4.83531 6.97575 5.31174 5.85273C5.78451 4.73835 6.44487 3.76359 7.29221 2.93272C8.14001 2.08538 9.13188 1.43319 10.2634 0.976942ZM11.0895 4.43928C11.9434 3.94153 12.9202 3.70001 14.004 3.70001C14.8105 3.70001 15.5553 3.83697 16.2308 4.12014C16.9198 4.38633 17.5163 4.78675 18.0147 5.31977C18.5132 5.83694 18.8915 6.45649 19.1529 7.1703C19.4167 7.87463 19.544 8.65482 19.544 9.50401C19.544 10.6268 19.3225 11.6427 18.8655 12.5391L18.8636 12.5427C18.4051 13.4246 17.7478 14.1185 16.898 14.6147C16.0579 15.1147 15.0874 15.356 14.004 15.356C13.1944 15.356 12.441 15.218 11.7503 14.9346C11.0652 14.6536 10.4706 14.2553 9.97233 13.7393L9.96625 13.733L9.96039 13.7265C9.48228 13.1953 9.11461 12.5708 8.85447 11.8598C8.59164 11.1414 8.46403 10.3542 8.46403 9.50401C8.46403 8.36796 8.68455 7.35683 9.14536 6.48752C9.60332 5.60761 10.2525 4.9205 11.0895 4.43928ZM14.004 4.70001C13.0725 4.70001 12.2737 4.90621 11.592 5.30389L11.5891 5.30557L11.5891 5.30556C10.9234 5.68797 10.4054 6.23197 10.0316 6.95068L10.0297 6.95437L10.0297 6.95436C9.65919 7.65264 9.46403 8.49687 9.46403 9.50401C9.46403 10.2538 9.57643 10.9226 9.79359 11.5162C10.0123 12.1141 10.3147 12.6236 10.6978 13.051C11.0943 13.4599 11.5697 13.7796 12.1298 14.0094C12.687 14.238 13.3096 14.356 14.004 14.356C14.9358 14.356 15.7246 14.1497 16.3881 13.7545L16.3921 13.7521L16.3921 13.7521C17.0767 13.3528 17.6025 12.7997 17.9755 12.0831C18.3499 11.3479 18.544 10.4924 18.544 9.50401C18.544 8.75394 18.4316 8.09475 18.2159 7.51957L18.2145 7.5158L18.2145 7.5158C17.9964 6.91982 17.688 6.42106 17.2923 6.0113L17.2865 6.00521L17.2865 6.00517C16.8912 5.5816 16.4192 5.26399 15.8645 5.05068L15.8572 5.04787L15.85 5.04482C15.3114 4.81805 14.6987 4.70001 14.004 4.70001Z" fill="black"/>
</g>
</g>
<defs>
<filter id="filter0_d_1913_56" x="0.600033" y="0.268005" width="26.808" height="26.52" filterUnits="userSpaceOnUse" color-interpolation-filters="sRGB">
<feFlood flood-opacity="0" result="BackgroundImageFix"/>
<feColorMatrix in="SourceAlpha" type="matrix" values="0 0 0 0 0 0 0 0 0 0 0 0 0 0 0 0 0 0 127 0" result="hardAlpha"/>
<feOffset dy="4"/>
<feGaussianBlur stdDeviation="2"/>
<feComposite in2="hardAlpha" operator="out"/>
<feColorMatrix type="matrix" values="0 0 0 0 0 0 0 0 0 0 0 0 0 0 0 0 0 0 0.25 0"/>
<feBlend mode="normal" in2="BackgroundImageFix" result="effect1_dropShadow_1913_56"/>
<feBlend mode="normal" in="SourceGraphic" in2="effect1_dropShadow_1913_56" result="shape"/>
</filter>
<filter id="filter1_d_1913_56" x="1.10003" y="0.768005" width="25.808" height="25.52" filterUnits="userSpaceOnUse" color-interpolation-filters="sRGB">
<feFlood flood-opacity="0" result="BackgroundImageFix"/>
<feColorMatrix in="SourceAlpha" type="matrix" values="0 0 0 0 0 0 0 0 0 0 0 0 0 0 0 0 0 0 127 0" result="hardAlpha"/>
<feOffset dy="4"/>
<feGaussianBlur stdDeviation="2"/>
<feComposite in2="hardAlpha" operator="out"/>
<feColorMatrix type="matrix" values="0 0 0 0 0 0 0 0 0 0 0 0 0 0 0 0 0 0 0.25 0"/>
<feBlend mode="normal" in2="BackgroundImageFix" result="effect1_dropShadow_1913_56"/>
<feBlend mode="normal" in="SourceGraphic" in2="effect1_dropShadow_1913_56" result="shape"/>
</filter>
<filter id="filter2_d_1913_56" x="0.600033" y="0.268005" width="26.808" height="26.52" filterUnits="userSpaceOnUse" color-interpolation-filters="sRGB">
<feFlood flood-opacity="0" result="BackgroundImageFix"/>
<feColorMatrix in="SourceAlpha" type="matrix" values="0 0 0 0 0 0 0 0 0 0 0 0 0 0 0 0 0 0 127 0" result="hardAlpha"/>
<feOffset dy="4"/>
<feGaussianBlur stdDeviation="2"/>
<feComposite in2="hardAlpha" operator="out"/>
<feColorMatrix type="matrix" values="0 0 0 0 0 0 0 0 0 0 0 0 0 0 0 0 0 0 0.25 0"/>
<feBlend mode="normal" in2="BackgroundImageFix" result="effect1_dropShadow_1913_56"/>
<feBlend mode="normal" in="SourceGraphic" in2="effect1_dropShadow_1913_56" result="shape"/>
</filter>
<clipPath id="clip0_1913_56">
<rect width="18.808" height="18.52" fill="white" transform="translate(4.60003 0.268005)"/>
</clipPath>
</defs>
</svg>
